<svg viewBox="0 0 400 245" xmlns="http://www.w3.org/2000/svg" xmlns:xlink="http://www.w3.org/1999/xlink" id="Layer_1" xml:space="preserve" overflow="hidden"><g><defs><rect x="8.59374" y="0" width="382.812" height="234.474" id="SVGID_1_"/></defs><clipPath id="SVGID_00000096056785908943848090000018110706348016194717_"><use width="100%" height="100%" xlink:href="#SVGID_1_" overflow="visible"></use></clipPath></g><g><defs><rect x="8.91435" y="23.4448" width="64.1227" height="77.869" id="SVGID_00000139266048634864895820000005497616425257160636_"/></defs><clipPath id="SVGID_00000070111267095790778560000011843819029979720080_"><use width="100%" height="100%" xlink:href="#SVGID_00000139266048634864895820000005497616425257160636_" overflow="visible"></use></clipPath><g clip-path="url(#SVGID_00000070111267095790778560000011843819029979720080_)"><path d="M63.6591 45.9279 58.0033 51.5737C67.3011 60.8514 67.3011 75.9654 58.0033 85.3433 48.7005 94.6211 33.5515 94.6211 24.1535 85.3433 14.8557 76.0605 14.8557 60.9466 24.1535 51.5737L39.017 36.7453 41.0308 34.7365 41.0308 23.4449 18.5929 45.9279C6.12902 58.3667 6.12902 78.5503 18.5929 90.8889 31.0567 103.233 51.2904 103.328 63.6591 90.8889 76.0278 78.4551 76.123 58.3667 63.6591 45.9279" fill="#FFFFFF"/></g></g><path d="M55.3181 43.2478C56.9463 41.6246 56.9463 39.0397 55.3181 37.4166 53.685 35.7885 51.1001 35.7885 49.4669 37.4166 47.8388 39.0397 47.8388 41.6246 49.4669 43.2478 51.1001 44.8759 53.685 44.8759 55.3181 43.2478" fill="#FFFFFF"/><path d="M126.364 46.0231 117.637 46.0231 117.637 73.4806 126.174 73.2902C137.485 73.0949 143.622 68.6013 143.622 59.3235 143.717 50.8072 137.581 46.0231 126.364 46.0231M125.788 79.0262 117.637 79.1264 117.637 100.172 111.501 100.172 111.501 40.3823 126.554 40.3823C142.375 40.3823 149.949 48.0319 149.949 59.033 150.044 72.1431 140.747 78.8359 125.788 79.0262" fill="#FFFFFF"/><path d="M177.662 99.6908 174.11 109.164C170.088 119.879 165.865 122.94 159.923 122.94 156.567 122.94 154.072 122.079 151.387 120.931L153.21 115.476C155.32 116.623 157.524 117.39 159.923 117.39 163.28 117.39 165.77 115.571 168.936 107.25L171.906 99.5004 154.743 56.2627 161.171 56.2627 174.977 92.517 188.493 56.3578 194.725 56.3578 177.662 99.6908Z" fill="#FFFFFF"/><path d="M215.054 46.1182 215.054 100.172 208.917 100.172 208.917 46.1182 187.727 46.1182 187.727 40.3823 236.149 40.3823 236.149 46.1182 215.054 46.1182Z" fill="#FFFFFF"/><path d="M253.693 60.4707C244.395 60.4707 238.258 67.8348 238.258 78.1696 238.258 88.4993 244.49 96.0588 253.788 96.0588 263.091 96.0588 269.227 88.6897 269.227 78.3599 269.227 68.0252 262.996 60.4707 253.693 60.4707M253.502 101.414C241.324 101.414 232.312 92.4219 232.312 78.3599 232.312 64.298 241.71 55.1105 253.978 55.1105 266.252 55.1105 275.074 64.1027 275.074 78.1696 275.074 92.2315 265.676 101.414 253.502 101.414" fill="#FFFFFF"/><path d="M290.127 100.172 284.181 100.172 284.181 56.3578 290.127 55.1105 290.127 64.4884C293.003 58.8426 297.316 55.1105 303.072 55.1105 305.948 55.1105 308.728 55.9721 310.742 57.1193L309.209 62.6699C307.29 61.5227 304.991 60.7563 302.496 60.7563 297.892 60.7563 293.579 64.2029 290.127 72.0429L290.127 100.172Z" fill="#FFFFFF"/><path d="M334.232 101.414C321.002 101.414 312.756 91.9409 312.756 78.3599 312.756 64.7739 321.863 55.1105 334.327 55.1105 339.697 55.1105 344.301 56.453 348.038 58.8426L346.505 64.2029C343.149 61.9986 338.931 60.6611 334.327 60.6611 324.834 60.6611 318.893 67.7396 318.893 78.1696 318.893 88.5945 325.124 95.8634 334.422 95.8634 338.836 95.8634 343.244 94.4307 346.601 92.2315L347.848 97.6819C344.106 99.9813 339.312 101.414 334.232 101.414" fill="#FFFFFF"/><path d="M384.859 100.172 384.859 71.8525C384.859 64.2029 381.788 60.7563 375.461 60.7563 370.381 60.7563 365.492 63.3412 361.845 66.9732L361.845 100.172 355.903 100.172 355.903 35.5981 361.845 34.3507 361.845 61.9986C366.449 57.4099 372.199 55.0153 377.089 55.0153 385.625 55.0153 390.8 60.4707 390.8 70.034L390.8 100.076 384.859 100.172Z" fill="#FFFFFF"/><path d="M89.4485 148.003C88.4916 146.951 87.3394 146.28 85.9968 145.609 84.6543 145.038 83.3117 144.847 81.6836 144.847 80.0555 144.847 78.6177 145.133 77.2752 145.609 75.9326 146.185 74.6852 146.951 73.8236 148.003 72.8617 149.055 72.0953 150.107 71.5191 151.445 70.943 152.787 70.7527 154.22 70.7527 155.848 70.7527 157.471 71.0432 159.099 71.5191 160.437 72.0953 161.78 72.8617 163.022 73.8236 164.074 74.7804 165.126 75.9326 165.797 77.2752 166.464 78.7129 166.849 80.0555 167.23 81.6836 167.23 83.3117 167.23 84.6543 166.944 85.9968 166.464 87.3394 165.892 88.3964 165.126 89.4485 164.074 90.4103 163.022 91.1768 161.97 91.7529 160.437 92.329 159.099 92.5193 157.667 92.5193 156.039 92.5193 154.41 92.2288 152.787 91.7529 151.445 91.1768 150.107 90.4103 148.865 89.4485 148.003Z" fill="#FFFFFF"/><path d="M222.338 144.652 213.23 144.652 213.23 154.125 222.338 154.125C223.971 154.125 225.313 153.744 226.27 152.787 227.232 152.021 227.708 150.779 227.708 149.436 227.708 148.003 227.132 146.856 226.27 145.994 225.313 145.228 223.971 144.652 222.338 144.652Z" fill="#FFFFFF"/><path d="M9.1999 131.642 9.1999 180.335 390.705 180.335 390.705 131.642 9.1999 131.642ZM36.427 160.437C37.0031 161.78 37.7696 163.022 38.8266 164.074 39.8786 165.126 40.9356 165.797 42.4686 166.464 43.8111 167.04 45.4392 167.23 47.0724 167.23 48.991 167.23 50.524 166.849 52.1521 165.988 53.7802 165.221 55.1228 164.074 56.275 162.736L60.974 167.42C59.9169 168.763 58.5744 169.815 57.0414 170.867 55.6037 171.824 53.9756 172.59 52.0569 172.971 50.3286 173.447 48.6053 173.737 46.6866 173.737 44.0967 173.737 41.7021 173.352 39.4027 172.395 37.0983 171.438 35.2798 170.291 33.4563 168.668 31.8282 167.04 30.4856 165.221 29.5238 163.022 28.567 160.918 28.086 158.428 28.086 156.039 28.086 153.454 28.6621 151.254 29.5238 149.055 30.4856 146.951 31.8282 145.038 33.4563 143.314 35.1796 141.691 37.0983 140.349 39.4027 139.582 41.7021 138.625 44.0967 138.245 46.6866 138.245 48.6053 138.245 50.4288 138.53 52.1521 139.011 53.8804 139.582 55.6037 140.253 57.1366 141.305 58.5744 142.262 59.9169 143.409 61.0691 144.752L56.275 149.531C55.0276 147.908 53.5898 146.856 51.9617 146.09 50.3286 145.323 48.5101 144.847 46.5914 144.847 44.9633 144.847 43.6208 145.133 42.183 145.609 40.8404 146.185 39.5931 146.951 38.7314 148.003 37.7696 149.055 37.0031 150.107 36.427 151.445 35.8509 152.787 35.6605 154.22 35.6605 156.039 35.6605 157.667 35.9511 159.099 36.427 160.437ZM98.6561 163.022C97.6942 165.126 96.3517 167.04 94.7235 168.763 93.0954 170.386 91.0816 171.729 88.7772 172.495 86.573 173.257 84.1784 173.833 81.6836 173.833 79.0936 173.833 76.6991 173.447 74.3946 172.495 72.0953 171.538 70.2718 170.386 68.4533 168.763 66.8202 167.135 65.4776 165.316 64.5208 163.022 63.5639 160.918 63.083 158.428 63.083 156.039 63.083 153.454 63.6591 151.254 64.5208 149.055 65.4776 146.951 66.8202 145.038 68.4533 143.314 70.0814 141.691 72.0953 140.349 74.3946 139.582 76.6991 138.625 79.0936 138.245 81.6836 138.245 84.2736 138.245 86.6681 138.625 88.7772 139.582 91.0816 140.539 92.9001 141.691 94.7235 143.314 96.3517 144.942 97.6942 146.761 98.6561 149.055 99.6129 151.159 99.9986 153.649 99.9986 156.039 99.9986 158.624 99.6129 160.823 98.6561 163.022ZM135.857 173.257 129.53 173.257 111.791 150.107 111.791 173.352 104.888 173.352 104.888 138.53 111.791 138.53 128.954 160.918 128.954 138.53 135.857 138.53 135.857 173.257ZM169.031 144.847 149.373 144.847 149.373 153.073 162.413 153.073 162.413 159.099 149.373 159.099 149.373 173.352 142.184 173.352 142.184 138.53 169.031 138.53 169.031 144.847ZM201.057 173.447 174.015 173.257 174.015 138.53 200.766 138.53 200.766 144.847 181.304 144.847 181.304 152.787 194.249 152.787 194.249 158.814 181.304 158.814 181.304 167.135 201.057 167.135 201.057 173.447ZM227.903 173.161 221 159.866 213.23 159.866 213.23 173.161 206.042 173.161 206.042 138.53 223.009 138.53C225.409 138.53 227.422 138.916 229.341 139.873 231.064 140.829 232.597 141.977 233.464 143.6 234.516 145.228 234.902 147.046 234.902 149.246 234.902 151.445 234.23 153.358 232.983 154.987 231.736 156.71 230.203 157.952 227.999 158.719L235.954 173.161 227.903 173.161ZM266.733 173.447 239.791 173.257 239.791 138.53 266.542 138.53 266.542 144.847 246.98 144.847 246.98 152.787 259.925 152.787 259.925 158.814 246.98 158.814 246.98 167.135 266.733 167.135 266.733 173.447ZM302.882 173.257 296.55 173.257 278.816 150.012 278.816 173.257 271.913 173.257 271.913 138.53 278.816 138.53 295.974 160.918 295.974 138.53 302.882 138.53 302.882 173.257ZM316.112 160.437C316.588 161.78 317.455 163.022 318.507 164.074 319.564 165.126 320.616 165.797 322.154 166.464 323.491 167.04 325.124 167.23 326.753 167.23 328.671 167.23 330.204 166.849 331.837 165.988 333.465 165.221 334.808 164.074 335.96 162.736L340.654 167.42C339.602 168.763 338.26 169.815 336.727 170.867 335.289 171.824 333.656 172.59 331.737 172.971 329.919 173.447 328.095 173.737 326.372 173.737 323.782 173.737 321.382 173.352 319.083 172.395 316.783 171.438 314.96 170.291 313.136 168.668 311.508 167.04 310.166 165.221 309.209 163.022 308.247 160.918 307.771 158.428 307.771 156.039 307.771 153.454 308.342 151.254 309.209 149.055 310.166 146.951 311.508 145.038 313.136 143.314 314.865 141.691 316.783 140.349 319.083 139.582 321.382 138.625 323.782 138.245 326.372 138.245 328.285 138.245 330.109 138.53 331.837 139.011 333.561 139.582 335.289 140.253 336.822 141.305 338.26 142.262 339.602 143.409 340.754 144.752L335.96 149.531C334.713 147.908 333.275 146.856 331.642 146.09 330.014 145.323 328.19 144.847 326.277 144.847 324.643 144.847 323.301 145.133 321.863 145.609 320.521 146.185 319.273 146.951 318.412 148.003 317.455 149.055 316.688 150.107 316.112 151.445 315.536 152.787 315.346 154.22 315.346 156.039 315.346 157.667 315.631 159.099 316.112 160.437ZM371.819 173.447 344.877 173.257 344.877 138.53 371.623 138.53 371.623 144.847 352.161 144.847 352.161 152.787 365.106 152.787 365.106 158.814 352.161 158.814 352.161 167.135 371.819 167.135 371.819 173.447Z" fill="#FFFFFF"/><g><defs><rect x="106.381" y="194.933" width="15.3894" height="20.88" id="SVGID_00000063613368122950713410000005229864460269463732_"/></defs><clipPath id="SVGID_00000036957964096278378870000001386955014279062707_"><use width="100%" height="100%" xlink:href="#SVGID_00000063613368122950713410000005229864460269463732_" overflow="visible"></use></clipPath><g clip-path="url(#SVGID_00000036957964096278378870000001386955014279062707_)"><path d="M106.807 215.492 106.807 195.329 121.174 195.329 121.174 197.288 109.011 197.288 109.011 204.346 116.956 204.346 116.956 206.275 109.011 206.275 109.011 213.534 121.289 213.534 121.289 215.497 106.807 215.497 106.807 215.492Z" fill="#FFFFFF"/></g></g><g><defs><rect x="123.053" y="194.933" width="17.9544" height="20.88" id="SVGID_00000127747446244990431690000011294837524181704632_"/></defs><clipPath id="SVGID_00000021819317920310680310000012730881889467806381_"><use width="100%" height="100%" xlink:href="#SVGID_00000127747446244990431690000011294837524181704632_" overflow="visible"></use></clipPath><g clip-path="url(#SVGID_00000021819317920310680310000012730881889467806381_)"><path d="M132.361 215.813C130.657 215.813 129.184 215.452 127.942 214.731 126.7 214.01 125.743 212.988 125.077 211.665 124.405 210.337 124.07 208.774 124.07 206.966L124.07 195.329 126.279 195.329 126.279 206.966C126.279 208.349 126.529 209.551 127.025 210.568 127.521 211.585 128.228 212.376 129.144 212.932 130.066 213.489 131.133 213.764 132.361 213.764 133.603 213.764 134.68 213.489 135.587 212.932 136.493 212.376 137.195 211.585 137.691 210.568 138.192 209.551 138.437 208.349 138.437 206.966L138.437 195.329 140.646 195.329 140.646 206.966C140.646 208.774 140.306 210.337 139.629 211.665 138.948 212.988 137.996 214.01 136.759 214.731 135.527 215.452 134.059 215.813 132.361 215.813Z" fill="#FFFFFF"/></g></g><g><defs><rect x="143.572" y="194.933" width="16.6719" height="20.88" id="SVGID_00000054226970872044577900000007236755752841810315_"/></defs><clipPath id="SVGID_00000140721378207891821660000010483656838933069440_"><use width="100%" height="100%" xlink:href="#SVGID_00000054226970872044577900000007236755752841810315_" overflow="visible"></use></clipPath><g clip-path="url(#SVGID_00000140721378207891821660000010483656838933069440_)"><path d="M144.664 215.492 144.664 195.329 153.266 195.329C154.583 195.329 155.73 195.569 156.707 196.05 157.684 196.531 158.44 197.202 158.987 198.064 159.533 198.931 159.803 199.948 159.803 201.12 159.803 202.442 159.417 203.58 158.646 204.531 157.869 205.483 156.832 206.149 155.53 206.535L160.034 215.492 157.599 215.492 153.296 206.821 146.868 206.821 146.868 215.492 144.664 215.492ZM146.868 204.952 153.12 204.952C154.478 204.952 155.565 204.607 156.377 203.915 157.193 203.219 157.599 202.292 157.599 201.12 157.599 199.968 157.188 199.046 156.377 198.355 155.565 197.663 154.483 197.318 153.12 197.318L146.868 197.318 146.868 204.952Z" fill="#FFFFFF"/></g></g><g><defs><rect x="161.526" y="194.933" width="21.8017" height="20.88" id="SVGID_00000061446685195760584890000012353864956511208357_"/></defs><clipPath id="SVGID_00000181088257556200690140000005678538509348249499_"><use width="100%" height="100%" xlink:href="#SVGID_00000061446685195760584890000012353864956511208357_" overflow="visible"></use></clipPath><g clip-path="url(#SVGID_00000181088257556200690140000005678538509348249499_)"><path d="M172.568 215.813C171.115 215.813 169.762 215.547 168.51 215.016 167.257 214.49 166.155 213.749 165.213 212.802 164.267 211.85 163.53 210.748 163.004 209.486 162.478 208.233 162.213 206.871 162.213 205.413 162.213 203.95 162.478 202.593 163.004 201.335 163.53 200.078 164.267 198.971 165.213 198.024 166.155 197.072 167.257 196.331 168.51 195.805 169.762 195.279 171.115 195.013 172.568 195.013 174 195.013 175.343 195.279 176.595 195.805 177.848 196.336 178.95 197.072 179.892 198.024 180.838 198.971 181.575 200.078 182.101 201.335 182.627 202.593 182.892 203.95 182.892 205.413 182.892 206.871 182.627 208.228 182.101 209.486 181.575 210.743 180.843 211.85 179.892 212.802 178.95 213.749 177.848 214.49 176.595 215.016 175.343 215.547 174 215.813 172.568 215.813ZM172.568 213.764C173.715 213.764 174.777 213.554 175.749 213.133 176.725 212.712 177.582 212.116 178.319 211.359 179.055 210.603 179.626 209.711 180.037 208.694 180.448 207.677 180.653 206.58 180.653 205.413 180.653 204.221 180.448 203.119 180.037 202.112 179.626 201.105 179.055 200.218 178.319 199.462 177.582 198.705 176.725 198.114 175.749 197.688 174.777 197.267 173.715 197.057 172.568 197.057 171.42 197.057 170.353 197.267 169.371 197.688 168.385 198.114 167.523 198.705 166.786 199.462 166.055 200.218 165.479 201.105 165.068 202.112 164.657 203.119 164.452 204.221 164.452 205.413 164.452 206.58 164.657 207.677 165.068 208.694 165.479 209.716 166.05 210.603 166.786 211.359 167.523 212.116 168.385 212.707 169.371 213.133 170.353 213.554 171.42 213.764 172.568 213.764Z" fill="#FFFFFF"/></g></g><g><defs><rect x="185.893" y="194.933" width="16.6719" height="20.88" id="SVGID_00000155133758027983517600000005356596068363706012_"/></defs><clipPath id="SVGID_00000151529428380902321590000014213928435431520701_"><use width="100%" height="100%" xlink:href="#SVGID_00000155133758027983517600000005356596068363706012_" overflow="visible"></use></clipPath><g clip-path="url(#SVGID_00000151529428380902321590000014213928435431520701_)"><path d="M186.364 215.492 186.364 195.329 195.081 195.329C196.398 195.329 197.54 195.569 198.507 196.05 199.474 196.531 200.225 197.207 200.761 198.079 201.292 198.956 201.563 199.978 201.563 201.15 201.563 202.322 201.292 203.344 200.761 204.216 200.225 205.092 199.469 205.774 198.492 206.26 197.52 206.751 196.378 206.996 195.081 206.996L188.568 206.996 188.568 215.497 186.364 215.497 186.364 215.492ZM188.568 205.067 194.91 205.067C196.268 205.067 197.345 204.717 198.146 204.015 198.953 203.314 199.354 202.367 199.354 201.175 199.354 199.988 198.953 199.046 198.146 198.355 197.345 197.663 196.268 197.318 194.91 197.318L188.568 197.318 188.568 205.067Z" fill="#FFFFFF"/></g></g><g><defs><rect x="203.847" y="194.933" width="16.6719" height="20.88" id="SVGID_00000034800595959159676860000008338684244940765614_"/></defs><clipPath id="SVGID_00000116937411542255101700000000225909076584308635_"><use width="100%" height="100%" xlink:href="#SVGID_00000034800595959159676860000008338684244940765614_" overflow="visible"></use></clipPath><g clip-path="url(#SVGID_00000116937411542255101700000000225909076584308635_)"><path d="M204.919 215.492 204.919 195.329 219.287 195.329 219.287 197.288 207.124 197.288 207.124 204.346 215.069 204.346 215.069 206.275 207.124 206.275 207.124 213.534 219.402 213.534 219.402 215.497 204.919 215.497 204.919 215.492Z" fill="#FFFFFF"/></g></g><g><defs><rect x="226.932" y="194.933" width="14.107" height="20.88" id="SVGID_00000062153809991349219400000017825205815960755356_"/></defs><clipPath id="SVGID_00000021111643320340975960000007567438956985557387_"><use width="100%" height="100%" xlink:href="#SVGID_00000062153809991349219400000017825205815960755356_" overflow="visible"></use></clipPath><g clip-path="url(#SVGID_00000021111643320340975960000007567438956985557387_)"><path d="M227.948 215.492 227.948 213.969 235.979 205.153C236.61 204.461 237.101 203.85 237.457 203.324 237.807 202.793 238.058 202.302 238.198 201.841 238.343 201.375 238.413 200.889 238.413 200.368 238.413 199.351 238.018 198.515 237.226 197.849 236.43 197.187 235.423 196.857 234.2 196.857 233.264 196.857 232.392 197.037 231.59 197.403 230.784 197.768 229.887 198.4 228.895 199.301L227.688 197.864C228.74 196.902 229.802 196.185 230.869 195.72 231.941 195.249 233.058 195.013 234.225 195.013 235.433 195.013 236.505 195.239 237.442 195.689 238.378 196.14 239.115 196.757 239.651 197.548 240.182 198.335 240.452 199.236 240.452 200.253 240.452 200.924 240.367 201.546 240.192 202.112 240.022 202.678 239.716 203.284 239.275 203.925 238.834 204.571 238.203 205.343 237.382 206.245L230.528 213.704 240.883 213.679 240.883 215.492 227.948 215.492Z" fill="#FFFFFF"/></g></g><g><defs><rect x="242.321" y="194.933" width="17.9543" height="20.88" id="SVGID_00000052093571746217825770000003886977952146047413_"/></defs><clipPath id="SVGID_00000045608689615605441590000005781728693817146300_"><use width="100%" height="100%" xlink:href="#SVGID_00000052093571746217825770000003886977952146047413_" overflow="visible"></use></clipPath><g clip-path="url(#SVGID_00000045608689615605441590000005781728693817146300_)"><path d="M251.579 215.813C249.971 215.813 248.558 215.367 247.336 214.485 246.108 213.604 245.151 212.376 244.45 210.813 243.754 209.245 243.403 207.447 243.403 205.413 243.403 203.374 243.754 201.576 244.45 200.008 245.151 198.445 246.108 197.222 247.336 196.336 248.558 195.454 249.971 195.013 251.579 195.013 253.187 195.013 254.599 195.454 255.822 196.336 257.044 197.222 258.006 198.445 258.707 200.008 259.404 201.576 259.754 203.374 259.754 205.413 259.754 207.447 259.404 209.245 258.707 210.813 258.006 212.376 257.049 213.604 255.822 214.485 254.599 215.367 253.187 215.813 251.579 215.813ZM251.579 213.939C252.821 213.939 253.898 213.589 254.805 212.887 255.712 212.186 256.413 211.194 256.914 209.907 257.41 208.619 257.655 207.121 257.655 205.413 257.655 203.68 257.41 202.182 256.914 200.904 256.413 199.627 255.712 198.635 254.805 197.934 253.898 197.232 252.821 196.882 251.579 196.882 250.356 196.882 249.284 197.232 248.368 197.934 247.446 198.635 246.739 199.627 246.243 200.904 245.748 202.182 245.497 203.68 245.497 205.413 245.497 207.121 245.748 208.619 246.243 209.907 246.739 211.189 247.446 212.186 248.368 212.887 249.284 213.589 250.351 213.939 251.579 213.939Z" fill="#FFFFFF"/></g></g><g><defs><rect x="260.275" y="194.933" width="15.3895" height="20.88" id="SVGID_00000077293932275872390880000017330247699929228184_"/></defs><clipPath id="SVGID_00000108280227318462262600000010757991964631570610_"><use width="100%" height="100%" xlink:href="#SVGID_00000077293932275872390880000017330247699929228184_" overflow="visible"></use></clipPath><g clip-path="url(#SVGID_00000108280227318462262600000010757991964631570610_)"><path d="M261.618 215.492 261.618 213.969 269.648 205.153C270.279 204.461 270.77 203.85 271.126 203.324 271.477 202.793 271.727 202.302 271.868 201.841 272.013 201.375 272.083 200.889 272.083 200.368 272.083 199.351 271.687 198.515 270.896 197.849 270.099 197.187 269.092 196.857 267.87 196.857 266.933 196.857 266.061 197.037 265.26 197.403 264.453 197.768 263.557 198.4 262.565 199.301L261.357 197.864C262.409 196.902 263.471 196.185 264.538 195.72 265.611 195.249 266.728 195.013 267.895 195.013 269.102 195.013 270.174 195.239 271.111 195.689 272.048 196.14 272.779 196.757 273.315 197.548 273.851 198.335 274.122 199.236 274.122 200.253 274.122 200.924 274.037 201.546 273.861 202.112 273.691 202.678 273.385 203.284 272.945 203.925 272.504 204.571 271.873 205.343 271.051 206.245L264.198 213.704 274.553 213.679 274.553 215.492 261.618 215.492Z" fill="#FFFFFF"/></g></g><g><defs><rect x="276.947" y="194.933" width="15.3895" height="20.88" id="SVGID_00000153683115195700442000000017755915610780033933_"/></defs><clipPath id="SVGID_00000072959856995160304210000015654857189530977928_"><use width="100%" height="100%" xlink:href="#SVGID_00000153683115195700442000000017755915610780033933_" overflow="visible"></use></clipPath><g clip-path="url(#SVGID_00000072959856995160304210000015654857189530977928_)"><path d="M285.248 215.783C283.7 215.783 282.338 215.367 281.16 214.541 279.983 213.719 279.061 212.582 278.395 211.129 277.724 209.681 277.388 208.003 277.388 206.104 277.388 203.875 277.764 201.931 278.505 200.268 279.252 198.61 280.304 197.318 281.661 196.396 283.019 195.474 284.597 195.013 286.395 195.013 287.237 195.013 288.069 195.128 288.89 195.359 289.712 195.589 290.448 195.925 291.099 196.366L290.067 197.979C289.471 197.633 288.85 197.363 288.204 197.172 287.553 196.982 286.891 196.887 286.225 196.887 284.847 196.887 283.655 197.242 282.653 197.964 281.646 198.685 280.875 199.717 280.329 201.06 279.788 202.407 279.492 204.02 279.457 205.904 280.198 204.942 281.09 204.191 282.122 203.655 283.154 203.119 284.226 202.848 285.333 202.848 286.636 202.848 287.793 203.114 288.805 203.655 289.817 204.191 290.613 204.937 291.184 205.884 291.761 206.836 292.046 207.918 292.046 209.125 292.046 210.393 291.746 211.535 291.154 212.542 290.563 213.549 289.757 214.34 288.735 214.916 287.708 215.492 286.551 215.783 285.248 215.783ZM285.048 204.546C283.996 204.546 282.989 204.812 282.022 205.338 281.055 205.869 280.219 206.595 279.512 207.512 279.662 208.8 279.993 209.927 280.499 210.899 281.005 211.87 281.666 212.622 282.478 213.158 283.294 213.699 284.206 213.969 285.218 213.969 286.135 213.969 286.951 213.759 287.673 213.348 288.389 212.932 288.95 212.366 289.361 211.635 289.777 210.904 289.982 210.087 289.982 209.185 289.982 208.279 289.772 207.482 289.351 206.781 288.93 206.079 288.349 205.528 287.613 205.138 286.876 204.742 286.025 204.546 285.048 204.546Z" fill="#FFFFFF"/></g></g><path d="M9.1999 205.959 98.6911 205.959 98.6911 207.858 9.1999 207.858 9.1999 205.959Z" fill="#FFFFFF"/><path d="M300.948 205.959 390.439 205.959 390.439 207.858 300.948 207.858 300.948 205.959Z" fill="#FFFFFF"/></svg>